<?xml version="1.0" encoding="UTF-8"?>
<svg xmlns="http://www.w3.org/2000/svg" width="720" height="220" viewBox="0 0 720 220" role="img" aria-label="norns-ide PyPI downloads trend">
  <title>norns-ide PyPI downloads (daily)</title>
  <rect width="100%" height="100%" fill="#ffffff"/>
  <text x="48" y="18" font-size="13" font-weight="600" fill="#0f172a" font-family="ui-sans-serif,system-ui,sans-serif">norns-ide PyPI downloads · daily</text>
  <text x="704" y="18" text-anchor="end" font-size="11" fill="#64748b" font-family="ui-sans-serif,system-ui,sans-serif">last day 2 · ~30d 434 · updated 2026-09-25 UTC</text>
  <text x="40" y="32.0" text-anchor="end" font-size="11" fill="#64748b" font-family="ui-sans-serif,system-ui,sans-serif">256</text><line x1="48" y1="28.0" x2="704" y2="28.0" stroke="#e2e8f0" stroke-width="1"/><text x="40" y="108.0" text-anchor="end" font-size="11" fill="#64748b" font-family="ui-sans-serif,system-ui,sans-serif">128</text><line x1="48" y1="104.0" x2="704" y2="104.0" stroke="#e2e8f0" stroke-width="1"/><text x="40" y="184.0" text-anchor="end" font-size="11" fill="#64748b" font-family="ui-sans-serif,system-ui,sans-serif">0</text><line x1="48" y1="180.0" x2="704" y2="180.0" stroke="#e2e8f0" stroke-width="1"/>
  <polygon points="48.0,180.0 48.0,28.0 75.3,159.2 102.7,168.7 130.0,169.3 157.3,177.0 184.7,175.8 212.0,176.4 239.3,177.0 266.7,172.3 294.0,175.8 321.3,176.4 348.7,178.8 376.0,176.4 403.3,178.2 430.7,174.1 458.0,177.6 485.3,178.2 512.7,178.2 540.0,178.8 567.3,179.4 594.7,177.6 622.0,174.7 649.3,178.8 676.7,176.4 704.0,178.8 704.0,180.0" fill="#38bdf8" fill-opacity="0.18"/>
  <polyline points="48.0,28.0 75.3,159.2 102.7,168.7 130.0,169.3 157.3,177.0 184.7,175.8 212.0,176.4 239.3,177.0 266.7,172.3 294.0,175.8 321.3,176.4 348.7,178.8 376.0,176.4 403.3,178.2 430.7,174.1 458.0,177.6 485.3,178.2 512.7,178.2 540.0,178.8 567.3,179.4 594.7,177.6 622.0,174.7 649.3,178.8 676.7,176.4 704.0,178.8" fill="none" stroke="#0284c7" stroke-width="2.5" stroke-linejoin="round" stroke-linecap="round"/>
  <circle cx="704.0" cy="178.8" r="3.5" fill="#0284c7"/>
  <line x1="48.0" y1="180.0" x2="48.0" y2="186.0" stroke="#94a3b8" stroke-width="1"/><text x="48.0" y="208" text-anchor="middle" font-size="11" fill="#64748b" font-family="ui-sans-serif,system-ui,sans-serif">Aug 30</text><line x1="102.7" y1="180.0" x2="102.7" y2="186.0" stroke="#94a3b8" stroke-width="1"/><text x="102.7" y="208" text-anchor="middle" font-size="11" fill="#64748b" font-family="ui-sans-serif,system-ui,sans-serif">Sep 01</text><line x1="704.0" y1="180.0" x2="704.0" y2="186.0" stroke="#94a3b8" stroke-width="1"/><text x="704.0" y="208" text-anchor="middle" font-size="11" fill="#64748b" font-family="ui-sans-serif,system-ui,sans-serif">Sep 24</text>
</svg>
