<?xml version="1.0" encoding="UTF-8"?>
<svg xmlns="http://www.w3.org/2000/svg" width="720" height="220" viewBox="0 0 720 220" role="img" aria-label="norns-ide PyPI downloads trend">
  <title>norns-ide PyPI downloads (daily)</title>
  <rect width="100%" height="100%" fill="#ffffff"/>
  <text x="48" y="18" font-size="13" font-weight="600" fill="#0f172a" font-family="ui-sans-serif,system-ui,sans-serif">norns-ide PyPI downloads · daily</text>
  <text x="704" y="18" text-anchor="end" font-size="11" fill="#64748b" font-family="ui-sans-serif,system-ui,sans-serif">last day 18 · ~30d 510 · updated 2026-10-03 UTC</text>
  <text x="40" y="32.0" text-anchor="end" font-size="11" fill="#64748b" font-family="ui-sans-serif,system-ui,sans-serif">271</text><line x1="48" y1="28.0" x2="704" y2="28.0" stroke="#e2e8f0" stroke-width="1"/><text x="40" y="108.0" text-anchor="end" font-size="11" fill="#64748b" font-family="ui-sans-serif,system-ui,sans-serif">135</text><line x1="48" y1="104.0" x2="704" y2="104.0" stroke="#e2e8f0" stroke-width="1"/><text x="40" y="184.0" text-anchor="end" font-size="11" fill="#64748b" font-family="ui-sans-serif,system-ui,sans-serif">0</text><line x1="48" y1="180.0" x2="704" y2="180.0" stroke="#e2e8f0" stroke-width="1"/>
  <polygon points="48.0,180.0 48.0,36.4 68.5,160.4 89.0,169.3 109.5,169.9 130.0,177.2 150.5,176.1 171.0,176.6 191.5,177.2 212.0,172.7 232.5,176.1 253.0,176.6 273.5,178.9 294.0,176.6 314.5,178.3 335.0,174.4 355.5,177.8 376.0,178.3 396.5,178.3 417.0,178.9 437.5,179.4 458.0,177.8 478.5,175.0 499.0,178.9 519.5,176.6 540.0,178.9 560.5,178.9 581.0,28.0 601.5,159.8 622.0,169.3 642.5,163.7 663.0,177.2 683.5,176.6 704.0,169.9 704.0,180.0" fill="#38bdf8" fill-opacity="0.18"/>
  <polyline points="48.0,36.4 68.5,160.4 89.0,169.3 109.5,169.9 130.0,177.2 150.5,176.1 171.0,176.6 191.5,177.2 212.0,172.7 232.5,176.1 253.0,176.6 273.5,178.9 294.0,176.6 314.5,178.3 335.0,174.4 355.5,177.8 376.0,178.3 396.5,178.3 417.0,178.9 437.5,179.4 458.0,177.8 478.5,175.0 499.0,178.9 519.5,176.6 540.0,178.9 560.5,178.9 581.0,28.0 601.5,159.8 622.0,169.3 642.5,163.7 663.0,177.2 683.5,176.6 704.0,169.9" fill="none" stroke="#0284c7" stroke-width="2.5" stroke-linejoin="round" stroke-linecap="round"/>
  <circle cx="704.0" cy="169.9" r="3.5" fill="#0284c7"/>
  <line x1="48.0" y1="180.0" x2="48.0" y2="186.0" stroke="#94a3b8" stroke-width="1"/><text x="48.0" y="208" text-anchor="middle" font-size="11" fill="#64748b" font-family="ui-sans-serif,system-ui,sans-serif">Aug 30</text><line x1="89.0" y1="180.0" x2="89.0" y2="186.0" stroke="#94a3b8" stroke-width="1"/><text x="89.0" y="208" text-anchor="middle" font-size="11" fill="#64748b" font-family="ui-sans-serif,system-ui,sans-serif">Sep 01</text><line x1="683.5" y1="180.0" x2="683.5" y2="186.0" stroke="#94a3b8" stroke-width="1"/><text x="683.5" y="208" text-anchor="middle" font-size="11" fill="#64748b" font-family="ui-sans-serif,system-ui,sans-serif">Oct 01</text><line x1="704.0" y1="180.0" x2="704.0" y2="186.0" stroke="#94a3b8" stroke-width="1"/><text x="704.0" y="208" text-anchor="middle" font-size="11" fill="#64748b" font-family="ui-sans-serif,system-ui,sans-serif">Oct 02</text>
</svg>
